<svg version="1.1" viewBox="0.0 0.0 960.0 720.0" fill="none" stroke="none" stroke-linecap="square" stroke-miterlimit="10" xmlns:xlink="http://www.w3.org/1999/xlink" xmlns="http://www.w3.org/2000/svg"><clipPath id="p.0"><path d="m0 0l960.0 0l0 720.0l-960.0 0l0 -720.0z" clip-rule="nonzero"/></clipPath><g clip-path="url(#p.0)"><path fill="#000000" fill-opacity="0.0" d="m0 0l960.0 0l0 720.0l-960.0 0z" fill-rule="evenodd"/><path fill="#000000" fill-opacity="0.0" d="m262.50394 215.29396l434.9921 0l0 67.05513l-434.9921 0z" fill-rule="evenodd"/><path fill="#0fd0ba" d="m362.33124 270.0734q-2.78125 0 -5.3125 -0.96875q-2.515625 -0.953125 -4.109375 -2.921875q-1.578125 -1.96875 -1.578125 -4.890625q0 -2.59375 1.15625 -4.046875q1.15625 -1.46875 2.875 -2.046875q1.734375 -0.578125 3.359375 -0.578125q-1.53125 1.640625 -2.328125 3.375q-0.78125 1.71875 -0.78125 3.296875q0 1.640625 0.828125 3.0625q0.84375 1.40625 2.515625 2.28125q1.6875 0.890625 4.1875 0.890625q2.15625 0 4.1875 -0.71875q2.046875 -0.71875 3.359375 -2.15625q1.328125 -1.4375 1.328125 -3.59375q0 -1.96875 -1.125 -3.375q-1.125 -1.421875 -2.90625 -2.546875q-1.765625 -1.140625 -3.734375 -2.171875q-1.96875 -1.03125 -3.75 -2.234375q-1.78125 -1.203125 -2.90625 -2.78125q-1.125 -1.578125 -1.125 -3.796875q0 -1.96875 0.984375 -4.1875q0.984375 -2.234375 2.796875 -4.203125q1.828125 -1.96875 4.421875 -3.1875q2.59375 -1.234375 5.765625 -1.234375q3.3125 0 4.65625 1.390625q1.34375 1.390625 1.34375 3.65625q0 1.765625 -0.625 3.78125q-0.625 2.015625 -1.515625 3.84375q-0.890625 1.828125 -1.703125 3.125q-1.046875 -0.25 -1.578125 -0.84375q-0.53125 -0.59375 -0.53125 -1.609375q0 -1.0 0.40625 -2.25q0.40625 -1.25 0.953125 -2.59375q0.5625 -1.34375 0.96875 -2.609375q0.40625 -1.28125 0.40625 -2.234375q0 -0.875 -0.5 -1.34375q-0.5 -0.484375 -2.046875 -0.484375q-2.296875 0 -4.21875 1.015625q-1.921875 1.0 -3.34375 2.546875q-1.40625 1.53125 -2.171875 3.234375q-0.765625 1.703125 -0.765625 3.09375q0 1.71875 1.09375 2.953125q1.109375 1.21875 2.859375 2.234375q1.75 1.0 3.6875 2.015625q1.953125 1.0 3.703125 2.25q1.75 1.25 2.859375 2.984375q1.109375 1.71875 1.109375 4.21875q0 2.484375 -1.140625 4.40625q-1.125 1.921875 -3.046875 3.234375q-1.921875 1.328125 -4.25 2.015625q-2.328125 0.703125 -4.71875 0.703125zm31.247314 -2.34375q-1.484375 0 -2.59375 -0.96875q-1.109375 -0.953125 -1.78125 -2.390625q-0.671875 -1.4375 -1.015625 -2.953125q-0.328125 -1.515625 -0.328125 -2.625q0.671875 -0.140625 1.671875 -0.421875q1.015625 -0.296875 2.0625 -0.796875q1.0625 -0.5 1.765625 -1.234375q0.703125 -0.75 0.703125 -1.8125q0 -0.859375 -0.5625 -1.390625q-0.546875 -0.53125 -1.5625 -0.53125q-1.34375 0 -2.546875 0.890625q-1.1875 0.890625 -2.21875 2.328125q-1.03125 1.4375 -1.875 3.125q-0.84375 1.671875 -1.5 3.265625q-0.640625 1.578125 -1.0625 2.734375q-0.53125 1.4375 -1.015625 1.9375q-0.484375 0.5 -1.390625 0.5q-0.34375 0 -0.796875 -0.1875q-0.453125 -0.1875 -0.765625 -0.96875q-0.3125 -0.765625 -0.3125 -2.4375q0 -2.9375 0.8125 -6.4375q0.828125 -3.5 2.1875 -7.125q1.375 -3.625 3.0 -6.9375q1.640625 -3.3125 3.3125 -5.953125q1.6875 -2.640625 3.140625 -4.171875q1.46875 -1.53125 2.421875 -1.53125q0.828125 0 1.375 0.984375q0.546875 0.984375 0.546875 2.515625q0 1.625 -0.71875 3.625q-0.71875 1.984375 -2.046875 4.03125q-1.3125 2.03125 -3.140625 3.859375q-1.8125 1.828125 -4.03125 3.125q-1.34375 3.109375 -2.0625 6.171875q-0.71875 3.046875 -0.90625 5.390625q0.859375 -1.96875 1.96875 -4.03125q1.109375 -2.0625 2.453125 -3.859375q1.34375 -1.796875 2.890625 -2.90625q1.5625 -1.109375 3.34375 -1.109375q1.921875 0 3.359375 1.34375q1.4375 1.34375 1.4375 3.359375q0 1.453125 -0.765625 2.515625q-0.765625 1.046875 -1.90625 1.75q-1.125 0.6875 -2.28125 1.03125q-1.140625 0.328125 -1.953125 0.375q0.140625 0.625 0.40625 1.59375q0.265625 0.953125 0.6875 1.859375q0.4375 0.90625 1.109375 1.53125q0.671875 0.625 1.578125 0.625q1.203125 0 2.46875 -1.09375q1.28125 -1.109375 2.5 -2.9375q1.234375 -1.828125 2.1875 -4.03125l0.671875 0.8125q-0.8125 2.40625 -2.234375 4.625q-1.40625 2.203125 -3.140625 3.5625q-1.71875 1.375 -3.546875 1.375zm-6.859375 -21.21875q1.28125 -1.15625 2.71875 -2.859375q1.453125 -1.703125 2.484375 -3.640625q1.03125 -1.953125 1.078125 -3.71875q0 -0.046875 0 -0.078125q0 -0.03125 0 -0.078125q-0.484375 0.203125 -1.515625 1.671875q-1.03125 1.453125 -2.28125 3.71875q-1.25 2.25 -2.484375 4.984375zm16.113525 32.828125q-1.1875 0 -2.21875 -0.75q-1.03125 -0.734375 -1.03125 -2.375q0 -1.53125 0.90625 -2.75q0.90625 -1.21875 2.34375 -2.265625q1.453125 -1.03125 3.109375 -1.875q1.65625 -0.828125 3.1875 -1.546875q0.53125 -1.390625 1.171875 -3.53125q0.65625 -2.140625 1.125 -3.953125q-1.484375 2.0625 -3.171875 3.640625q-1.671875 1.578125 -3.734375 1.578125q-0.859375 0 -1.828125 -0.359375q-0.953125 -0.359375 -1.609375 -1.234375q-0.640625 -0.890625 -0.640625 -2.390625q0 -1.234375 0.453125 -3.015625q0.453125 -1.78125 1.140625 -3.484375q0.703125 -1.703125 1.46875 -2.828125q0.78125 -1.125 1.34375 -1.125q0.296875 0 0.84375 0.21875q0.5625 0.203125 1.078125 0.5625q0.53125 0.359375 0.671875 0.796875q-0.421875 0.578125 -0.953125 1.65625q-0.53125 1.078125 -1.015625 2.40625q-0.46875 1.3125 -0.78125 2.5625q-0.3125 1.25 -0.3125 2.15625q0 0.71875 0.28125 1.25q0.296875 0.53125 1.109375 0.53125q1.046875 0 2.171875 -0.859375q1.140625 -0.875 2.21875 -2.21875q1.078125 -1.34375 1.9375 -2.734375q0.09375 -0.328125 0.1875 -1.046875q0.109375 -0.71875 0.34375 -1.5q0.25 -0.8125 0.84375 -1.484375q0.59375 -0.671875 1.703125 -0.671875q0.390625 0 0.71875 0.046875q0.34375 0.046875 0.8125 0.140625q0 0.734375 -0.5 2.828125q-0.5 2.078125 -1.328125 4.8125q-0.8125 2.734375 -1.8125 5.46875q2.015625 -0.8125 4.1875 -2.703125q2.1875 -1.90625 3.53125 -5.40625l0.828125 0.671875q-0.71875 2.40625 -2.1875 4.1875q-1.46875 1.765625 -3.296875 3.015625q-1.8125 1.25 -3.6875 2.0625q-1.296875 3.125 -2.8125 5.75q-1.515625 2.640625 -3.203125 4.203125q-1.671875 1.5625 -3.59375 1.5625zm-0.46875 -1.78125q0.90625 0 2.53125 -1.921875q1.640625 -1.90625 3.328125 -5.75q-1.546875 0.765625 -3.109375 1.796875q-1.546875 1.03125 -2.609375 2.1875q-1.0625 1.15625 -1.0625 2.34375q0 0.484375 0.21875 0.90625q0.21875 0.4375 0.703125 0.4375zm29.617584 -7.484375q0.234375 -0.71875 1.40625 -3.296875q1.1875 -2.5625 3.171875 -6.84375q2.0 -4.296875 4.734375 -10.203125q2.734375 -5.90625 6.09375 -13.296875q0.1875 -0.390625 0.296875 -0.8125q0.125 -0.4375 0.125 -0.78125q0 -0.46875 -0.28125 -0.75q-0.28125 -0.296875 -1.109375 -0.296875q-2.015625 0 -3.296875 1.234375q-1.265625 1.21875 -1.859375 3.0q-0.59375 1.765625 -0.59375 3.484375q0 0.4375 0.046875 1.015625q0.046875 0.578125 0.140625 1.296875q-1.15625 0 -1.90625 -0.6875q-0.734375 -0.703125 -1.125 -1.734375q-0.375 -1.03125 -0.375 -1.953125q0 -1.53125 0.890625 -2.96875q0.890625 -1.4375 2.328125 -2.609375q1.4375 -1.1875 3.1875 -1.859375q1.75 -0.671875 3.484375 -0.671875q1.765625 0 3.015625 0.984375q1.25 0.984375 1.921875 3.5625q0.671875 2.5625 0.671875 7.359375q0 3.125 -0.21875 6.3125q-0.21875 3.1875 -0.453125 5.984375q-0.234375 2.78125 -0.234375 4.75q0.953125 -2.84375 2.359375 -6.03125q1.421875 -3.1875 3.046875 -6.328125q1.640625 -3.15625 3.21875 -5.9375q1.59375 -2.78125 2.859375 -4.859375q1.28125 -2.09375 1.953125 -3.109375q0.671875 -1.046875 1.1875 -1.578125q0.53125 -0.53125 1.453125 -0.53125q0.671875 0 2.109375 0.53125q-0.4375 0.90625 -1.015625 2.90625q-0.5625 1.984375 -1.234375 4.625q-0.71875 2.875 -1.453125 6.3125q-0.71875 3.4375 -1.296875 6.9375q-0.5625 3.5 -0.921875 6.65625q-0.359375 3.140625 -0.359375 5.53125q0 1.25 0.109375 1.96875q0.125 0.71875 0.34375 1.265625q0.21875 0.5625 0.5 1.421875q-2.0625 0 -3.140625 -0.625q-1.078125 -0.625 -1.4375 -2.0q-0.359375 -1.359375 -0.359375 -3.609375q0 -5.328125 1.21875 -11.203125q1.21875 -5.890625 2.859375 -12.125q-1.34375 1.921875 -2.796875 4.5625q-1.4375 2.640625 -2.828125 5.5625q-1.390625 2.921875 -2.640625 5.78125q-1.25 2.859375 -2.203125 5.28125q-0.953125 2.421875 -1.484375 4.0625q-0.4375 0.140625 -0.609375 0.1875q-0.15625 0.046875 -0.40625 0.046875q-1.671875 0 -2.140625 -2.03125q-0.453125 -2.046875 -0.453125 -5.59375q0 -1.875 0.046875 -4.015625q0.0625 -2.140625 0.15625 -4.359375q0.09375 -2.234375 0.140625 -4.4375q0.046875 -2.21875 0.046875 -4.234375q0 -0.71875 -0.03125 -1.4375q-0.015625 -0.71875 -0.015625 -1.390625q-3.65625 8.5 -6.171875 14.53125q-2.515625 6.015625 -4.296875 9.78125q-1.765625 3.765625 -3.265625 5.515625q-1.484375 1.75 -3.109375 1.75zm43.096313 -1.484375q-2.5 0 -4.109375 -1.5625q-1.59375 -1.5625 -1.59375 -4.765625q0 -2.359375 0.90625 -4.609375q0.90625 -2.265625 2.4375 -4.0625q1.546875 -1.796875 3.4375 -2.84375q1.90625 -1.0625 3.875 -1.0625q2.015625 0 2.890625 1.015625q0.890625 1.0 0.890625 2.34375q0 1.34375 -0.65625 2.625q-0.640625 1.265625 -1.734375 1.265625q-0.921875 0 -1.5 -0.921875q0.484375 -0.328125 1.015625 -1.234375q0.53125 -0.921875 0.53125 -2.359375q0 -0.390625 -0.203125 -0.59375q-0.1875 -0.21875 -0.71875 -0.21875q-1.1875 0 -2.515625 1.078125q-1.3125 1.078125 -2.453125 2.78125q-1.125 1.703125 -1.828125 3.609375q-0.6875 1.890625 -0.6875 3.46875q0 1.34375 0.6875 2.46875q0.703125 1.125 2.71875 1.125q1.828125 0 3.796875 -1.046875q1.96875 -1.0625 3.6875 -2.953125q1.734375 -1.890625 2.796875 -4.53125l0.953125 0.859375q-1.15625 2.921875 -3.203125 5.203125q-2.03125 2.28125 -4.5 3.59375q-2.46875 1.328125 -4.921875 1.328125zm10.327789 1.484375q0.234375 -0.71875 1.40625 -3.296875q1.1875 -2.5625 3.171875 -6.84375q2.0 -4.296875 4.734375 -10.203125q2.734375 -5.90625 6.09375 -13.296875q0.1875 -0.390625 0.296875 -0.8125q0.125 -0.4375 0.125 -0.78125q0 -0.46875 -0.28125 -0.75q-0.28125 -0.296875 -1.109375 -0.296875q-2.015625 0 -3.296875 1.234375q-1.265625 1.21875 -1.859375 3.0q-0.59375 1.765625 -0.59375 3.484375q0 0.4375 0.046875 1.015625q0.046875 0.578125 0.140625 1.296875q-1.15625 0 -1.90625 -0.6875q-0.734375 -0.703125 -1.125 -1.734375q-0.375 -1.03125 -0.375 -1.953125q0 -1.53125 0.890625 -2.96875q0.890625 -1.4375 2.328125 -2.609375q1.4375 -1.1875 3.1875 -1.859375q1.75 -0.671875 3.484375 -0.671875q1.765625 0 3.015625 0.984375q1.25 0.984375 1.921875 3.5625q0.671875 2.5625 0.671875 7.359375q0 3.125 -0.21875 6.3125q-0.21875 3.1875 -0.453125 5.984375q-0.234375 2.78125 -0.234375 4.75q0.953125 -2.84375 2.359375 -6.03125q1.421875 -3.1875 3.046875 -6.328125q1.640625 -3.15625 3.21875 -5.9375q1.59375 -2.78125 2.859375 -4.859375q1.28125 -2.09375 1.953125 -3.109375q0.671875 -1.046875 1.1875 -1.578125q0.53125 -0.53125 1.453125 -0.53125q0.671875 0 2.109375 0.53125q-0.4375 0.90625 -1.015625 2.90625q-0.5625 1.984375 -1.234375 4.625q-0.71875 2.875 -1.453125 6.3125q-0.71875 3.4375 -1.296875 6.9375q-0.5625 3.5 -0.921875 6.65625q-0.359375 3.140625 -0.359375 5.53125q0 1.25 0.109375 1.96875q0.125 0.71875 0.34375 1.265625q0.21875 0.5625 0.5 1.421875q-2.0625 0 -3.140625 -0.625q-1.078125 -0.625 -1.4375 -2.0q-0.359375 -1.359375 -0.359375 -3.609375q0 -5.328125 1.21875 -11.203125q1.21875 -5.890625 2.859375 -12.125q-1.34375 1.921875 -2.796875 4.5625q-1.4375 2.640625 -2.828125 5.5625q-1.390625 2.921875 -2.640625 5.78125q-1.25 2.859375 -2.203125 5.28125q-0.953125 2.421875 -1.484375 4.0625q-0.4375 0.140625 -0.609375 0.1875q-0.15625 0.046875 -0.40625 0.046875q-1.671875 0 -2.140625 -2.03125q-0.453125 -2.046875 -0.453125 -5.59375q0 -1.875 0.046875 -4.015625q0.0625 -2.140625 0.15625 -4.359375q0.09375 -2.234375 0.140625 -4.4375q0.046875 -2.21875 0.046875 -4.234375q0 -0.71875 -0.03125 -1.4375q-0.015625 -0.71875 -0.015625 -1.390625q-3.65625 8.5 -6.171875 14.53125q-2.515625 6.015625 -4.296875 9.78125q-1.765625 3.765625 -3.265625 5.515625q-1.484375 1.75 -3.109375 1.75zm40.553955 -1.921875q-1.578125 0 -2.75 -1.0625q-1.1875 -1.046875 -1.1875 -3.15625q0 -1.671875 0.765625 -3.640625q0.765625 -1.96875 2.109375 -3.890625q1.34375 -1.921875 3.078125 -3.484375q1.734375 -1.5625 3.703125 -2.515625q1.96875 -0.96875 3.9375 -0.96875q2.0625 0 3.5 1.0625q1.4375 1.046875 1.4375 2.78125q0 1.296875 -0.921875 1.875q-0.90625 0.578125 -2.15625 0.328125q0.09375 -0.421875 0.171875 -0.859375q0.078125 -0.4375 0.078125 -0.90625q0 -0.96875 -0.390625 -1.734375q-0.375 -0.765625 -1.625 -0.765625q-1.34375 0 -2.75 0.921875q-1.390625 0.90625 -2.65625 2.375q-1.265625 1.453125 -2.28125 3.203125q-1.0 1.75 -1.578125 3.4375q-0.578125 1.671875 -0.578125 3.015625q0 1.546875 1.109375 1.546875q1.09375 0 2.4375 -1.078125q1.34375 -1.09375 2.703125 -2.71875q1.375 -1.625 2.625 -3.328125q1.25 -1.71875 2.15625 -2.90625q0.15625 -0.25 0.390625 -0.25q0.1875 0.046875 0.734375 0.21875q0.5625 0.171875 1.03125 0.515625q0.484375 0.328125 0.484375 0.859375q0 0.46875 -0.40625 1.21875q-0.40625 0.75 -0.953125 1.640625q-0.546875 0.875 -0.96875 1.765625q-0.40625 0.890625 -0.40625 1.703125q0 0.625 0.328125 1.1875q0.34375 0.546875 1.109375 0.546875q1.15625 0 3.234375 -1.703125q2.09375 -1.703125 4.265625 -5.78125l0.90625 0.90625q-1.15625 2.59375 -2.765625 4.59375q-1.59375 1.984375 -3.375 3.109375q-1.78125 1.125 -3.609375 1.125q-1.96875 0 -2.921875 -1.25q-0.953125 -1.25 -1.0625 -2.6875q0 -0.09375 0 -0.140625q0 -0.046875 0 -0.09375q-1.90625 2.296875 -3.515625 3.640625q-1.609375 1.34375 -3.4375 1.34375zm20.827698 -0.421875q-1.046875 0 -1.515625 -1.640625q-0.453125 -1.625 -0.453125 -3.78125q0 -2.21875 0.75 -5.328125q0.75 -3.125 2.015625 -6.578125q1.265625 -3.453125 2.828125 -6.765625q1.5625 -3.3125 3.21875 -6.03125q1.65625 -2.71875 3.171875 -4.34375q1.515625 -1.625 2.65625 -1.625q1.015625 0 1.53125 1.109375q0.53125 1.09375 0.53125 2.296875q0 1.296875 -0.59375 3.1875q-0.59375 1.890625 -1.65625 4.0625q-1.0625 2.15625 -2.484375 4.25q-1.40625 2.078125 -3.0625 3.8125q-1.65625 1.71875 -3.421875 2.78125q-0.625 1.625 -0.984375 3.046875q-0.359375 1.421875 -0.515625 2.671875q-0.140625 1.234375 -0.140625 2.4375q0 0.234375 0.015625 0.5q0.03125 0.265625 0.03125 0.515625q0.1875 -0.296875 0.625 -1.484375q0.4375 -1.203125 1.171875 -2.8125q0.75 -1.609375 1.84375 -3.171875q1.109375 -1.5625 2.59375 -2.59375q1.5 -1.03125 3.421875 -1.03125q1.625 0 2.53125 0.75q0.921875 0.734375 1.296875 1.8125q0.390625 1.078125 0.390625 2.1875q0 1.53125 -0.515625 2.875q-0.5 1.34375 -1.0 2.53125q-0.5 1.171875 -0.5 2.234375q0 0.859375 0.375 1.203125q0.390625 0.328125 0.921875 0.328125q1.0625 0 2.46875 -1.046875q1.421875 -1.0625 2.828125 -2.8125q1.421875 -1.765625 2.4375 -3.875l0.765625 0.8125q-1.109375 2.40625 -2.59375 4.421875q-1.484375 2.015625 -3.265625 3.21875q-1.78125 1.203125 -3.84375 1.203125q-1.828125 0 -2.78125 -0.96875q-0.953125 -0.953125 -0.953125 -2.390625q0 -1.015625 0.359375 -2.234375q0.359375 -1.21875 0.6875 -2.46875q0.34375 -1.25 0.34375 -2.265625q0 -1.140625 -0.515625 -1.578125q-0.5 -0.4375 -1.21875 -0.4375q-1.203125 0 -2.171875 0.9375q-0.953125 0.9375 -1.71875 2.421875q-0.765625 1.484375 -1.4375 3.140625q-0.671875 1.65625 -1.34375 3.15625q-0.671875 1.484375 -1.421875 2.421875q-0.734375 0.9375 -1.703125 0.9375zm4.515625 -17.671875q1.25 -1.09375 2.390625 -2.625q1.15625 -1.546875 2.140625 -3.203125q0.984375 -1.65625 1.734375 -3.21875q0.75 -1.5625 1.171875 -2.796875q0.4375 -1.25 0.484375 -1.921875q0 -0.046875 0 -0.078125q0 -0.03125 0 -0.078125q-0.28125 0 -1.21875 1.1875q-0.9375 1.171875 -2.171875 3.171875q-1.21875 1.984375 -2.453125 4.484375q-1.21875 2.484375 -2.078125 5.078125zm20.165161 17.375q-2.15625 0 -2.953125 -1.421875q-0.796875 -1.40625 -0.796875 -3.078125q0 -1.546875 0.484375 -3.15625q0.484375 -1.609375 1.3125 -3.0q0.84375 -1.390625 1.875 -2.21875q1.03125 -0.84375 2.09375 -0.84375q0.328125 0 0.78125 0.125q0.46875 0.109375 0.65625 0.34375q-0.578125 0.734375 -1.1875 1.796875q-0.59375 1.046875 -1.09375 2.21875q-0.5 1.171875 -0.796875 2.375q-0.28125 1.203125 -0.28125 2.203125q0 0.96875 0.359375 1.59375q0.359375 0.625 1.265625 0.625q0.921875 0 2.1875 -1.03125q1.28125 -1.03125 2.421875 -2.375q-1.53125 -1.40625 -2.203125 -3.0625q-0.671875 -1.65625 -0.671875 -4.0q0 -1.015625 0.5 -2.296875q0.5 -1.296875 1.625 -2.25q1.140625 -0.96875 3.0625 -0.96875q2.0625 0 2.890625 1.15625q0.84375 1.140625 0.84375 2.71875q0 1.78125 -0.9375 4.0q-0.921875 2.203125 -2.21875 4.171875q0.5625 0.28125 1.34375 0.28125q0.71875 0 1.71875 -0.328125q1.015625 -0.34375 1.96875 -1.125q0.96875 -0.796875 1.53125 -2.140625l0.875 0.625q-1.0625 2.4375 -2.8125 3.578125q-1.75 1.125 -3.4375 1.125q-0.625 0 -1.25 -0.125q-0.609375 -0.125 -1.140625 -0.3125q-1.640625 1.921875 -3.75 3.359375q-2.109375 1.4375 -4.265625 1.4375zm7.578125 -7.390625q1.15625 -1.671875 1.96875 -3.59375q0.8125 -1.921875 0.8125 -3.5625q0 -1.09375 -0.34375 -1.59375q-0.328125 -0.515625 -1.0 -0.515625q-0.90625 0 -1.875 1.296875q-0.953125 1.296875 -0.953125 3.265625q0 1.015625 0.359375 2.453125q0.359375 1.4375 1.03125 2.25zm23.277893 6.8125q-1.875 0 -2.859375 -0.9375q-0.96875 -0.921875 -0.96875 -2.375q0 -0.953125 0.328125 -2.03125q0.34375 -1.078125 0.671875 -2.1875q0.34375 -1.109375 0.34375 -2.109375q0 -1.0625 -0.515625 -1.46875q-0.5 -0.40625 -1.171875 -0.40625q-1.4375 0 -2.953125 1.1875q-1.515625 1.171875 -2.9375 2.953125q-1.40625 1.765625 -2.65625 3.6875q-1.25 1.921875 -2.15625 3.453125q-0.90625 0 -1.71875 -0.3125q-0.828125 -0.3125 -1.40625 -1.078125q0.046875 -0.234375 0.5625 -1.453125q0.5 -1.234375 1.125 -2.9375q0.625 -1.703125 1.09375 -3.578125q0.484375 -1.875 0.484375 -3.40625q0.34375 -0.390625 1.03125 -0.765625q0.703125 -0.390625 1.46875 -0.390625q1.671875 0 1.671875 1.4375q0 0.578125 -0.21875 1.71875q-0.203125 1.125 -0.59375 2.5625q1.25 -1.6875 2.734375 -3.171875q1.5 -1.484375 3.09375 -2.421875q1.609375 -0.9375 3.25 -0.9375q2.0625 0 3.046875 1.390625q0.984375 1.390625 0.984375 3.078125q0 1.4375 -0.484375 2.6875q-0.484375 1.25 -0.9375 2.359375q-0.453125 1.09375 -0.453125 2.140625q0 0.78125 0.359375 1.09375q0.359375 0.3125 0.796875 0.3125q1.15625 0 2.390625 -1.109375q1.25 -1.109375 2.375 -2.8125q1.140625 -1.703125 2.0 -3.421875l0.8125 0.671875q-1.0 2.34375 -2.28125 4.296875q-1.265625 1.9375 -2.828125 3.109375q-1.5625 1.171875 -3.484375 1.171875z" fill-rule="nonzero"/></g></svg>